<svg width="262" height="131" viewBox="0 0 262 131" fill="none" xmlns="http://www.w3.org/2000/svg">
<g filter="url(#filter0_d_265_3482)">
<path d="M140.96 99.8255V103.754C140.995 107.093 140.419 110.984 139.173 114.081C137.928 117.179 136.085 120.001 133.748 122.386C131.943 124.229 129.87 125.784 127.604 127L190.348 127V74.341C187.525 73.9404 184.758 73.179 182.114 72.0705C178.018 70.3535 174.301 67.8384 171.172 64.6715C168.044 61.5048 165.565 57.7483 163.874 53.6179C162.755 50.8815 161.995 48.0157 161.61 45.0939L140.938 45.0401L140.96 99.8255Z" fill="#0914C5"/>
<path d="M259 127C259 110.322 255.65 93.8076 249.142 78.3992C244.031 66.2977 237.05 55.0647 228.464 45.0875C228.079 48.0115 227.319 50.8795 226.199 53.6179C224.508 57.7483 222.029 61.5048 218.901 64.6715C215.772 67.8384 212.055 70.3535 207.959 72.0705C205.203 73.2261 202.312 74.0046 199.364 74.3901V127H259Z" fill="#0914C5"/>
<path d="M129.5 0C112.494 -7.29013e-07 95.6542 3.28496 79.9425 9.6673C64.8079 15.8152 51.0055 24.7212 39.2638 35.9078L170.331 35.9077V40.5954C170.331 43.2999 170.973 47.1594 172.219 50.2041C173.465 53.2487 175.29 56.0115 177.587 58.3362C179.884 60.6608 182.607 62.5018 185.6 63.7568C188.594 65.0118 191.8 65.657 195.037 65.657C198.273 65.657 201.479 65.0118 204.473 63.7568C207.466 62.5018 210.19 60.6608 212.486 58.3362C214.783 56.0115 216.608 53.2487 217.854 50.2041C219.1 47.1593 219.742 43.8942 219.742 40.5954V35.913C207.999 24.7239 194.194 15.8162 179.058 9.6673C163.346 3.28496 146.506 7.29013e-07 129.5 0Z" fill="#0914C5"/>
<path d="M99.1256 100.263L99.1728 104.771C99.1954 106.925 99.6421 109.054 100.488 111.036C101.333 113.018 102.561 114.814 104.1 116.321C105.64 117.829 107.462 119.018 109.461 119.822C111.461 120.626 113.599 121.028 115.754 121.005C117.909 120.983 120.038 120.536 122.02 119.691C124.002 118.845 125.799 117.618 127.306 116.078C128.814 114.539 130.004 112.718 130.808 110.719C131.611 108.719 131.966 106.287 131.944 104.132V99.9199L131.921 45.0166L72.0521 44.8607V127H103.56C101.451 125.869 99.5085 124.443 97.7919 122.762C95.4063 120.427 93.5041 117.644 92.1941 114.573C90.8841 111.502 90.1918 108.203 90.1568 104.865L90.1096 100.358L99.1256 100.263Z" fill="#0914C5"/>
<path d="M9.8576 78.3992C3.34961 93.8075 0 110.322 0 127H63.0356V44.8372L30.8248 44.7534C22.106 54.8137 15.026 66.1625 9.8576 78.3992Z" fill="#0914C5"/>
</g>
<defs>
<filter id="filter0_d_265_3482" x="0" y="0" width="262" height="131" filterUnits="userSpaceOnUse" color-interpolation-filters="sRGB">
<feFlood flood-opacity="0" result="BackgroundImageFix"/>
<feColorMatrix in="SourceAlpha" type="matrix" values="0 0 0 0 0 0 0 0 0 0 0 0 0 0 0 0 0 0 127 0" result="hardAlpha"/>
<feOffset dx="3" dy="4"/>
<feComposite in2="hardAlpha" operator="out"/>
<feColorMatrix type="matrix" values="0 0 0 0 0.807843 0 0 0 0 0.756863 0 0 0 0 0.905882 0 0 0 0.4 0"/>
<feBlend mode="normal" in2="BackgroundImageFix" result="effect1_dropShadow_265_3482"/>
<feBlend mode="normal" in="SourceGraphic" in2="effect1_dropShadow_265_3482" result="shape"/>
</filter>
</defs>
</svg>
