<svg width="26" height="24" viewBox="0 0 26 24" fill="none" xmlns="http://www.w3.org/2000/svg">
<path d="M6 0C2 0 0 3.22355 0 7.2C0 8.04152 0.137824 8.84933 0.391117 9.6L0.937649 10.6346L1.48418 11.6693L1.60255 11.8049C2.5 13 12.7112 24.0079 12.9995 24C13.2984 23.9956 23.5 13 24.3974 11.8049C24.4756 11.7174 24.5158 11.6693 24.5158 11.6693C25.1888 10.7801 25.3539 10.3556 25.6089 9.6C25.8622 8.84933 26 8.04152 26 7.2C26 3.22355 24 0 20 0C16 0 13.5 3 12.9995 6C12.5 3 10 0 6 0Z" fill="#44E1C5"/>
<path d="M0.391117 9.6C0.646077 10.3556 1.01803 11.0533 1.48418 11.6693L0.937649 10.6346L0.391117 9.6Z" fill="#44E1C5"/>
</svg>
